<svg width="1143" height="1080" viewBox="0 0 1143 1080" fill="none" xmlns="http://www.w3.org/2000/svg">
<g clip-path="url(#clip0_193_119)">
<path d="M963.173 422.04C940.656 407.99 925.562 383.341 924.572 354.995C924.696 354.995 924.449 354.995 924.572 354.995C924.572 353.762 924.572 353.146 924.572 352.037C924.449 157.802 766.208 -0.0753174 571.347 -0.0753174C376.485 -0.0753174 218.368 157.432 218.368 351.667C218.368 352.777 218.368 353.886 218.368 355.118C217.379 382.972 202.532 407.251 180.51 421.301C72.7479 481.568 -0.000488281 596.433 -0.000488281 728.182C-0.000488281 922.417 158.116 1079.92 353.101 1079.92C417.437 1079.92 477.689 1062.79 529.652 1032.85C541.777 1025.7 556.129 1021.75 571.347 1021.75C584.461 1021.75 596.957 1024.71 608.216 1030.26C609.824 1031.12 611.433 1031.86 612.917 1032.72C664.88 1062.92 725.257 1080.05 789.716 1080.05C984.701 1080.05 1142.82 922.54 1142.82 728.305C1142.82 597.049 1070.56 482.554 963.421 422.04H963.173ZM800.108 662.492C784.89 677.652 763.981 686.895 740.845 686.895H406.426C360.277 686.895 322.79 649.552 322.79 603.581C322.79 602.965 322.79 602.225 322.913 601.609C323.285 579.425 332.564 559.089 347.287 544.546C362.504 529.387 383.413 520.144 406.426 520.144H740.845C784.767 520.144 821.017 553.79 824.358 596.926C824.481 599.144 824.729 601.239 824.729 603.581C824.729 626.505 815.45 647.456 800.232 662.492H800.108Z" fill="currentColor"/>
</g>
<defs>
<clipPath id="clip0_193_119">
<rect width="1143" height="1080" fill="white"/>
</clipPath>
</defs>
</svg>
